<?xml version="1.0" standalone="no"?>
<!DOCTYPE svg PUBLIC "-//W3C//DTD SVG 20010904//EN"
 "http://www.w3.org/TR/2001/REC-SVG-20010904/DTD/svg10.dtd">
<svg version="1.0" xmlns="http://www.w3.org/2000/svg"
 width="1024.000000pt" height="1024.000000pt" viewBox="0 0 1024.000000 1024.000000"
 preserveAspectRatio="xMidYMid meet">
<metadata>
Created by potrace 1.14, written by Peter Selinger 2001-2017
</metadata>
<g transform="translate(0.000000,1024.000000) scale(0.100000,-0.100000)"
fill="#000000" stroke="none">
<path d="M4865 9244 c-178 -18 -334 -35 -355 -39 -760 -147 -1296 -374 -1840
-779 -556 -414 -1023 -1013 -1309 -1681 -150 -350 -243 -680 -290 -1030 -61
-454 -63 -675 -10 -1155 43 -401 196 -911 374 -1255 215 -414 420 -702 743
-1043 333 -353 812 -686 1285 -896 291 -129 724 -254 1042 -301 607 -90 1227
-47 1795 124 487 146 787 283 1150 525 429 285 833 688 1117 1116 184 276 339
566 416 776 48 131 151 470 171 564 40 180 72 368 88 505 18 160 17 779 -1
930 -30 255 -91 517 -187 803 -209 624 -529 1143 -1011 1639 -282 291 -632
543 -1040 747 -228 114 -261 129 -466 202 -336 119 -496 159 -932 230 -87 14
-643 28 -740 18z m1003 -250 c27 -18 30 -69 5 -96 -17 -19 -79 -26 -68 -8 3 6
-3 10 -14 10 -17 0 -21 6 -21 35 0 38 28 75 58 75 10 0 28 -7 40 -16z m-1023
-74 c188 -20 476 -81 645 -136 110 -36 440 -202 555 -279 213 -143 413 -325
534 -488 39 -52 71 -100 71 -106 0 -6 5 -11 11 -11 5 0 7 -5 4 -10 -4 -6 -11
-7 -17 -4 -6 4 3 -19 20 -51 18 -32 32 -68 31 -79 0 -20 -1 -20 -9 2 -6 13
-22 42 -38 65 -15 23 -37 59 -47 81 -11 21 -67 85 -123 142 -109 110 -139 133
-139 109 0 -8 7 -11 15 -7 11 4 14 1 9 -10 -7 -20 21 -60 36 -52 7 4 9 4 5 0
-3 -4 11 -30 32 -58 21 -28 44 -63 52 -77 7 -14 27 -46 44 -71 45 -63 135
-246 141 -284 6 -41 5 -39 -62 89 -51 97 -108 190 -126 205 -3 3 -14 20 -24
39 -11 22 -20 30 -24 22 -10 -15 -33 10 -29 30 2 9 -6 13 -22 12 -14 -1 -19 1
-12 3 18 8 15 24 -4 17 -13 -5 -15 -2 -10 14 5 16 1 22 -20 27 -14 4 -28 5
-31 2 -6 -6 88 -126 99 -126 4 0 8 -5 8 -11 0 -6 13 -29 28 -52 31 -45 84
-140 112 -197 52 -108 67 -146 63 -153 -7 -11 -43 49 -43 70 0 9 -3 13 -7 10
-6 -7 -18 9 -50 73 -10 19 -41 67 -69 107 -46 64 -65 84 -127 133 -10 7 6 -22
36 -66 62 -91 125 -205 157 -284 12 -30 31 -72 42 -93 11 -20 18 -47 16 -60
-3 -20 -5 -19 -23 13 -12 19 -27 51 -35 70 -7 19 -28 56 -46 81 -18 25 -38 58
-43 72 -6 15 -15 27 -21 27 -5 0 -10 6 -10 13 0 6 -23 36 -50 64 -57 60 -63
58 -19 -7 68 -100 148 -283 187 -433 11 -40 -2 -43 -19 -4 -5 12 -13 29 -19
37 -5 8 -27 54 -49 101 -22 47 -47 92 -56 99 -8 7 -15 18 -15 25 0 6 -18 28
-40 48 -22 19 -40 34 -40 33 0 -1 14 -29 31 -62 67 -130 134 -344 108 -344 -5
0 -9 -10 -9 -22 -1 -24 -20 18 -42 92 -5 19 -15 41 -22 49 -6 8 -27 46 -47 85
-20 39 -40 70 -45 68 -5 -2 -11 5 -15 15 -7 16 -8 16 -8 1 -1 -10 8 -37 19
-60 19 -43 48 -138 71 -231 11 -45 10 -50 -9 -69 l-21 -21 -6 26 c-4 15 -11
27 -16 27 -5 0 -9 6 -9 14 0 8 -20 54 -45 103 -45 85 -46 87 -40 43 3 -25 15
-87 26 -139 24 -117 25 -186 4 -177 -11 4 -15 -2 -15 -25 0 -43 -17 -27 -25
24 -4 23 -15 60 -25 82 -9 22 -23 55 -31 73 -15 34 -29 42 -29 17 0 -8 4 -15
9 -15 5 0 10 -63 10 -140 1 -100 -2 -140 -10 -140 -7 0 -10 -11 -6 -32 3 -18
3 -27 1 -21 -4 8 -14 2 -31 -17 -13 -17 -31 -30 -39 -30 -8 0 -14 -6 -14 -13
0 -15 -51 -47 -74 -47 -9 0 -16 -6 -17 -12 0 -7 -4 -4 -8 7 -8 19 -8 19 -15
-3 -4 -13 -13 -21 -19 -19 -7 2 -18 -2 -25 -9 -10 -11 -10 -14 0 -14 9 0 10
-2 2 -8 -7 -4 -14 -16 -17 -27 -3 -13 -5 -10 -6 12 0 17 -5 34 -10 37 -5 4 -7
-4 -4 -16 4 -19 3 -20 -6 -8 -14 20 -14 26 5 44 8 9 12 16 7 16 -4 0 -8 46 -9
103 0 64 -7 126 -18 167 -40 150 -135 290 -254 379 -138 101 -240 135 -407
135 -136 1 -214 -18 -339 -81 -93 -47 -217 -171 -268 -268 -123 -235 -109
-523 35 -735 82 -120 198 -208 331 -251 74 -24 108 -46 71 -46 -8 0 -15 4 -15
8 0 9 -41 -1 -58 -14 -7 -5 -15 -7 -19 -4 -3 4 2 9 11 13 9 3 16 10 16 14 0 5
-14 2 -30 -7 -17 -8 -37 -12 -44 -10 -8 3 -16 -2 -19 -12 -3 -13 -13 -17 -33
-16 -16 1 -33 -1 -39 -4 -5 -3 -30 -6 -55 -7 -126 -7 -271 -28 -266 -40 3 -7
-2 -10 -14 -7 -11 3 -26 -2 -35 -11 -9 -8 -23 -12 -32 -9 -13 5 -15 2 -10 -11
6 -14 3 -17 -9 -12 -9 3 -27 9 -40 12 -13 3 -24 10 -24 14 0 4 -7 10 -15 14
-12 4 -10 -4 6 -37 12 -23 15 -36 8 -29 -7 6 -26 12 -43 12 -16 0 -44 11 -63
26 -18 14 -33 21 -33 15 0 -19 23 -61 34 -61 7 0 7 -3 -1 -11 -18 -18 -73 14
-136 77 -52 53 -56 56 -47 28 6 -17 19 -40 28 -50 30 -33 54 -76 46 -82 -4 -4
-9 -1 -11 6 -3 6 -13 12 -23 12 -17 0 -109 84 -158 146 -23 27 -24 28 -17 5 4
-13 14 -40 23 -60 9 -20 23 -58 32 -84 l17 -48 -23 28 c-13 15 -47 58 -75 96
-47 61 -69 80 -69 59 0 -4 7 -17 15 -29 8 -12 12 -29 8 -39 -5 -13 -3 -15 7
-9 10 6 12 2 8 -19 -3 -14 -2 -26 2 -26 6 0 30 -44 30 -57 0 -12 -36 25 -77
82 -45 61 -54 61 -28 -2 8 -20 13 -38 10 -41 -3 -3 -5 0 -5 6 0 7 -3 11 -7 11
-22 -4 -33 3 -33 20 0 10 -9 29 -21 42 -19 23 -20 23 -10 2 6 -12 11 -25 11
-29 0 -11 -30 18 -30 30 0 6 -19 36 -41 66 -45 61 -45 45 2 -59 16 -35 27 -72
24 -82 -3 -9 -1 -20 5 -24 5 -3 10 -14 9 -23 0 -14 -2 -13 -9 3 -6 13 -9 15
-9 5 -1 -10 -6 -7 -17 8 -8 12 -12 28 -8 35 4 6 4 9 -1 5 -9 -8 -45 54 -45 78
0 8 -4 13 -9 10 -5 -4 -12 7 -16 24 l-7 30 -261 3 c-144 1 -310 1 -369 -1 -60
-2 -108 0 -108 5 0 6 -158 10 -193 4 -5 0 8 -21 28 -45 26 -32 42 -43 56 -41
11 2 192 5 402 5 334 2 383 0 392 -14 5 -8 7 -17 4 -20 -2 -3 -183 -6 -402 -8
-348 -3 -396 -5 -391 -18 3 -8 9 -23 11 -32 3 -10 10 -18 17 -18 6 -1 192 0
414 0 l402 1 9 -23 c5 -13 7 -26 4 -30 -2 -5 -189 -8 -415 -8 l-410 0 6 -22
c3 -13 6 -39 6 -59 l0 -36 123 -5 c67 -3 132 -10 143 -16 15 -8 167 -13 483
-17 363 -4 468 -8 494 -19 32 -14 97 -71 97 -86 0 -4 -15 -5 -32 -1 -18 4 -85
8 -148 10 -63 1 -134 4 -158 7 -28 4 -48 2 -58 -7 -13 -10 -17 -10 -23 0 -7
10 -102 12 -467 8 -276 -3 -460 -9 -462 -15 -5 -17 23 -29 101 -40 43 -7 95
-20 117 -31 22 -11 37 -14 33 -8 -4 7 21 -17 55 -53 69 -73 119 -163 127 -231
5 -43 7 -46 32 -41 17 3 24 1 19 -6 -4 -6 1 -11 11 -11 37 1 160 -35 213 -61
30 -15 68 -30 84 -34 23 -6 27 -9 15 -16 -22 -15 26 -56 86 -73 62 -17 100
-64 92 -114 -5 -31 -4 -32 36 -40 l42 -9 -75 -55 c-91 -67 -258 -232 -320
-314 -47 -62 -148 -214 -169 -252 l-11 -22 -267 5 c-147 3 -281 3 -298 0 -20
-4 -36 -15 -42 -29 l-11 -23 298 1 298 2 -11 -25 -12 -25 -270 6 c-148 4 -282
8 -297 10 -34 5 -88 -27 -63 -37 9 -3 24 -2 33 4 13 7 13 9 3 10 -8 0 -12 2
-9 5 7 8 38 -5 38 -16 0 -5 -8 -9 -17 -10 -12 0 -13 -2 -5 -6 7 -3 18 0 25 6
13 10 51 8 157 -8 30 -5 61 -6 68 -4 6 3 12 1 12 -5 0 -6 19 -14 43 -18 23 -4
44 -8 47 -9 3 0 14 -5 25 -11 11 -6 46 -21 77 -33 32 -13 62 -29 68 -36 11
-14 -24 -145 -42 -156 -6 -4 -7 -12 -3 -19 6 -9 4 -11 -5 -5 -9 6 -10 2 -5
-16 7 -21 6 -22 -9 -10 -14 12 -16 12 -10 -4 5 -13 4 -16 -4 -11 -7 4 -12 2
-12 -6 0 -9 -3 -9 -10 2 -5 8 -10 11 -10 6 0 -5 -8 -2 -17 5 -15 11 -16 11 -5
-1 18 -21 15 -27 -15 -27 -16 1 -40 -7 -55 -17 -60 -40 -155 -33 -207 15 l-33
30 -49 -26 c-27 -14 -49 -22 -49 -18 0 5 -5 1 -10 -7 -5 -8 -15 -15 -22 -16
-34 -3 -39 -5 -33 -14 3 -5 0 -7 -8 -4 -19 7 -126 -94 -191 -180 -80 -108
-130 -206 -150 -298 -4 -16 -13 -28 -21 -28 -18 0 -21 89 -5 155 8 36 7 38 -6
21 -8 -11 -14 -25 -15 -30 -1 -6 -5 0 -9 14 -7 22 -8 20 -10 -15 -1 -40 -18
-95 -19 -65 -2 30 -33 -47 -42 -103 -9 -52 -6 -117 15 -312 1 -11 6 -26 10
-34 6 -10 5 -12 -2 -7 -24 15 -151 218 -159 253 -4 21 -8 103 -7 183 1 113 6
165 23 235 58 241 211 428 446 549 70 36 68 47 -6 39 -24 -3 -41 -2 -38 1 5 5
47 14 148 31 43 7 51 12 51 31 0 8 -10 14 -24 14 -14 0 -38 11 -54 25 -16 13
-32 21 -36 18 -4 -4 -4 0 -1 8 5 13 -5 12 -62 -6 -37 -12 -82 -25 -99 -28 -29
-6 -31 -4 -27 16 3 13 1 18 -4 11 -4 -5 -43 -32 -85 -59 -43 -26 -75 -52 -72
-56 3 -5 -1 -7 -8 -4 -17 7 -112 -80 -103 -94 3 -6 0 -9 -7 -6 -16 6 -134
-149 -177 -233 -19 -35 -20 -36 -28 -14 -8 20 -10 18 -20 -20 -6 -24 -17 -79
-23 -123 -18 -129 -20 -133 -32 -111 -7 13 -7 20 2 26 9 6 10 21 4 56 l-8 49
-6 -50 -6 -50 -23 50 c-22 45 -23 57 -17 156 6 102 5 108 -14 114 -29 9 -25
23 5 17 25 -4 35 12 13 21 -9 4 -8 6 3 6 9 1 20 16 26 36 l11 35 -56 -2 -57
-1 45 -6 45 -7 -60 -5 c-69 -7 -76 -6 -92 20 -12 19 -9 19 76 14 73 -4 90 -2
104 12 32 32 20 37 -83 33 -55 -1 -100 0 -100 4 0 5 -5 7 -12 5 -6 -1 -13 5
-15 13 -3 13 14 15 120 12 l124 -4 23 39 c13 21 32 48 43 60 l20 23 -181 0
c-100 0 -182 2 -182 4 0 2 -3 11 -6 20 -5 14 16 16 193 16 156 0 203 3 219 14
10 8 17 17 14 19 -3 3 -95 8 -205 10 -192 4 -235 9 -235 27 0 5 96 9 213 10
117 0 226 5 242 9 20 6 -57 10 -216 10 -215 1 -248 3 -253 17 -14 38 -8 45 37
37 37 -6 41 -5 29 9 -7 9 -21 14 -33 11 -26 -7 -62 25 -55 51 3 10 1 27 -4 35
-4 9 -11 41 -14 71 -4 30 -10 93 -15 140 -6 47 -10 104 -10 127 l-1 42 48 4
47 3 -52 2 c-49 2 -53 4 -53 27 l0 25 203 2 c111 1 299 3 417 3 1137 1 1631 6
1625 16 -4 6 -14 8 -22 5 -8 -3 -11 -1 -8 4 3 6 1 10 -4 10 -6 0 -11 -6 -12
-12 0 -10 -2 -10 -6 0 -2 6 -12 12 -20 12 -9 0 -34 15 -57 33 -63 51 -75 54
-31 8 47 -50 34 -55 -20 -7 -70 63 -153 68 -243 15 -47 -27 -51 -24 -12 11 37
33 27 39 -22 14 -30 -16 -33 -16 -49 4 -9 12 -19 19 -22 16 -3 -3 -15 9 -27
26 -21 30 -80 68 -80 53 0 -5 16 -17 35 -27 19 -11 33 -21 30 -24 -2 -3 0 -13
6 -23 15 -29 -3 -23 -34 11 -16 17 -33 30 -38 30 -6 0 -22 9 -37 20 -25 19
-68 25 -151 21 -24 -1 -24 -1 -5 -16 18 -14 18 -14 -4 -15 -13 0 -32 5 -43 10
-25 14 -24 9 13 -58 l31 -57 -52 58 c-51 55 -131 119 -148 116 -16 -2 -53 13
-48 21 2 4 -13 7 -34 6 -49 -1 -44 -10 12 -24 46 -12 62 -24 144 -104 65 -63
62 -76 -4 -18 -87 76 -126 94 -223 98 -56 3 -95 0 -109 -8 -13 -6 -26 -9 -29
-5 -14 14 38 42 89 48 58 7 70 14 49 27 -20 13 -70 13 -70 0 0 -5 -9 -10 -21
-10 -11 0 -35 -17 -54 -37 l-34 -38 -48 45 c-38 37 -43 40 -28 15 10 -16 27
-38 37 -49 10 -11 18 -26 18 -34 0 -8 -30 13 -68 46 -37 32 -90 73 -117 90
-68 42 -208 85 -267 83 -27 -1 -48 3 -48 7 0 10 -137 35 -150 27 -4 -3 -30 -1
-57 4 -51 10 -133 4 -133 -9 0 -4 16 -4 36 0 36 8 85 2 214 -26 78 -17 100
-26 93 -37 -4 -8 -1 -7 9 1 13 10 22 11 37 3 11 -6 32 -11 47 -11 15 0 35 -6
43 -13 9 -8 32 -19 51 -26 82 -30 140 -65 140 -84 0 -9 -2 -9 -8 -1 -18 27
-228 104 -287 104 -16 1 -57 7 -90 15 -85 21 -88 19 -20 -14 83 -39 158 -103
205 -176 38 -58 67 -122 58 -130 -2 -2 -21 19 -43 47 -71 89 -153 168 -175
168 -14 0 -19 4 -14 12 5 8 2 9 -9 5 -10 -3 -17 -2 -17 3 0 14 -59 42 -71 34
-6 -4 -14 -2 -18 4 -4 7 -12 8 -20 2 -19 -11 55 -43 81 -34 10 3 18 1 18 -5 0
-5 24 -26 53 -47 49 -35 104 -100 92 -112 -2 -3 -29 18 -58 45 -30 28 -76 62
-103 76 -53 26 -194 74 -234 79 l-25 3 3 135 c7 279 73 706 114 731 7 5 21 9
31 9 10 0 17 8 17 20 0 11 11 37 24 58 27 44 104 122 119 122 6 0 8 2 5 5 -3
3 -24 -2 -48 -10 -26 -9 -46 -12 -49 -6 -6 10 -58 -13 -53 -23 5 -13 2 -26 -7
-26 -18 0 23 126 114 355 37 94 78 190 90 215 l23 46 259 12 c142 7 490 15
773 18 638 8 615 7 615 25 0 8 5 17 10 22 6 4 -355 6 -802 5 l-811 -3 36 65
c42 77 52 91 61 85 7 -4 869 12 1021 19 41 2 125 5 185 6 61 2 91 5 68 7 -24
2 -43 8 -43 12 0 4 -26 7 -57 8 -948 6 -1134 4 -1150 -8 -26 -23 39 98 119
217 211 315 534 663 811 875 335 255 557 383 918 532 149 62 465 156 574 172
169 25 479 32 640 15z m1465 -170 c11 -11 20 -26 20 -34 0 -20 -28 -46 -50
-46 -22 0 -50 26 -50 46 0 16 35 54 50 54 6 0 19 -9 30 -20z m585 -199 c148
-40 293 -107 461 -212 138 -87 344 -254 344 -279 0 -6 6 -8 13 -4 6 4 9 4 5
-1 -4 -4 11 -31 33 -60 21 -28 39 -57 39 -63 0 -5 4 -12 8 -14 9 -3 62 -79 81
-115 10 -21 9 -23 -10 -23 -19 0 -20 2 -8 17 12 14 12 16 -1 11 -9 -3 -34 20
-70 67 -95 123 -142 175 -153 168 -6 -3 -7 -1 -4 4 4 6 -3 19 -15 29 -21 19
-21 19 -9 -3 6 -13 9 -23 5 -23 -3 0 -1 -7 6 -15 7 -8 17 -12 24 -8 6 3 8 3 4
-2 -5 -5 3 -23 17 -41 14 -18 25 -36 25 -40 0 -4 8 -13 18 -20 14 -12 14 -13
1 -8 -9 3 -31 26 -50 52 -18 26 -54 67 -79 92 -25 25 -37 38 -25 29 46 -36 47
-27 1 15 -26 26 -96 80 -153 122 -82 59 -108 73 -117 63 -8 -9 -8 -10 1 -5 8
4 23 -3 35 -16 13 -13 36 -32 53 -43 40 -25 120 -101 158 -150 37 -47 16 -33
-66 45 -32 30 -66 59 -75 64 -9 5 -30 20 -46 33 -100 83 -336 191 -524 239
-59 15 -110 33 -114 38 -5 7 -8 5 -8 -4 0 -12 -2 -12 -9 -2 -4 7 -12 12 -17
11 -5 -1 -11 -1 -14 0 -3 2 -23 4 -45 5 -73 5 -163 17 -191 25 -29 8 -29 8 16
21 89 24 137 29 260 25 78 -3 151 -12 195 -24z m51 -352 c11 -9 32 -23 48 -31
l29 -15 -36 -12 c-39 -13 -69 -48 -82 -96 l-8 -30 -7 37 c-8 47 -25 67 -74 89
l-39 17 33 17 c43 22 80 63 80 89 1 17 5 14 19 -14 11 -19 27 -42 37 -51z
m353 -298 c14 -20 52 -46 104 -71 79 -38 81 -39 44 -40 -92 -1 -162 -66 -197
-181 -12 -41 -23 -78 -25 -84 -1 -5 -6 13 -10 40 -10 67 -26 104 -65 149 -38
43 -83 64 -160 75 l-55 7 65 33 c126 64 148 91 190 229 l22 74 33 -100 c18
-55 42 -114 54 -131z m451 -292 c29 -11 30 -13 14 -22 -17 -10 -17 -11 1 -18
16 -7 14 -8 -10 -6 -16 1 -35 -4 -40 -11 -6 -7 -20 -14 -32 -15 -12 0 -21 -3
-19 -5 2 -2 -2 -15 -9 -29 -7 -14 -11 -31 -9 -38 3 -7 1 -16 -5 -20 -6 -3 -11
-15 -11 -26 0 -31 -20 -22 -36 17 -27 64 5 141 70 170 39 17 45 17 86 3z
m-1031 -84 c0 -5 -6 -1 -14 9 -8 11 -15 24 -15 30 0 5 7 1 15 -10 8 -10 14
-23 14 -29z m441 -20 c17 -20 5 -45 -20 -45 -23 0 -35 22 -26 45 7 19 30 19
46 0z m588 -40 c13 -12 10 -33 -4 -28 -8 3 -17 -2 -20 -11 -3 -9 -11 -13 -16
-10 -6 4 -5 10 3 16 10 7 8 8 -8 3 -26 -7 -39 10 -23 30 12 14 55 14 68 0z
m460 -44 c21 -13 10 -46 -16 -49 -17 -3 -22 1 -22 21 0 35 13 45 38 28z m-835
-228 c11 -10 17 -12 13 -5 -12 20 -1 14 25 -15 13 -15 16 -21 6 -14 -17 13
-17 13 -7 -11 10 -21 9 -29 -6 -49 -40 -50 -77 -79 -101 -79 -23 0 -73 42 -73
62 0 5 -5 6 -11 2 -7 -4 -9 1 -5 15 3 11 8 30 12 41 8 31 62 70 96 70 17 0 40
-8 51 -17z m722 3 c79 -19 149 -59 207 -119 50 -50 94 -118 100 -152 2 -11 8
-23 13 -27 6 -5 5 -8 -3 -8 -9 0 -8 -7 4 -27 9 -16 10 -21 2 -12 -22 27 -35 1
-40 -83 -3 -52 -11 -86 -24 -105 -10 -15 -17 -34 -16 -42 2 -8 -1 -10 -9 -5
-9 5 -10 2 -6 -10 4 -9 3 -15 -2 -12 -4 3 -23 -6 -41 -19 -18 -13 -57 -30 -86
-36 -46 -10 -56 -10 -85 7 -114 67 -129 205 -30 271 38 26 118 32 139 11 19
-19 15 13 -10 79 -35 95 -156 202 -245 216 -10 1 -22 5 -28 9 -20 12 -162 0
-217 -19 -32 -11 -58 -16 -58 -12 0 14 124 78 180 93 71 19 179 20 255 2z
m-225 -393 c59 -90 93 -173 131 -327 35 -138 51 -268 46 -374 -4 -68 3 -96 18
-72 3 5 6 75 7 156 1 131 2 142 14 109 7 -20 15 -90 19 -154 10 -170 -22 -320
-106 -499 -119 -257 -341 -447 -670 -576 -314 -123 -523 -134 -824 -44 -145
44 -348 139 -331 155 2 3 51 -14 108 -37 56 -24 133 -53 170 -66 307 -105 647
-79 890 67 71 43 84 56 46 45 -36 -11 -77 -13 -72 -4 3 4 20 15 37 24 18 9 66
39 107 67 287 191 440 438 506 812 18 103 18 187 -2 305 -8 52 -18 120 -20
150 -10 115 -55 223 -140 339 -39 54 -44 64 -18 36 20 -22 58 -72 84 -112z
m-930 53 l45 -22 3 -61 c2 -51 0 -63 -15 -71 -10 -5 -153 -10 -318 -11 -305
-1 -418 4 -380 20 11 4 38 8 61 8 27 1 47 8 58 20 27 29 147 53 193 37 17 -5
30 2 66 37 25 26 62 51 88 59 58 19 142 13 199 -16z m1690 -61 c10 -12 9 -15
-4 -15 -9 0 -19 -6 -22 -14 -7 -19 -34 -9 -34 13 0 34 37 43 60 16z m-1199
-11 c72 -21 175 -83 222 -133 21 -23 33 -41 27 -41 -6 0 -8 -5 -5 -10 4 -6 10
-8 14 -6 4 3 7 -5 6 -17 -1 -12 4 -35 12 -52 l14 -30 -20 25 c-11 14 -21 28
-21 31 0 4 -15 18 -34 33 -24 18 -37 23 -42 14 -5 -7 -3 -8 6 -3 10 6 12 4 6
-11 -4 -10 -4 -15 0 -11 11 11 95 -151 93 -181 -1 -14 -2 -13 -6 3 -7 26 -64
127 -69 122 -3 -2 1 -17 7 -33 39 -100 64 -272 54 -368 -9 -86 -23 -77 -18 11
3 40 -2 95 -11 133 l-15 65 5 -95 c7 -132 -12 -230 -72 -360 -49 -108 -95
-180 -135 -215 l-23 -20 17 28 c12 18 13 26 5 25 -26 -6 -20 44 12 88 46 65
116 220 130 289 37 179 1 353 -97 473 -67 82 -194 129 -283 105 l-36 -9 7 56
c9 79 17 98 42 103 53 10 158 6 208 -9z m1136 -260 c3 -8 -2 -23 -11 -32 -15
-15 -17 -15 -32 0 -21 21 -11 48 16 48 11 0 23 -7 27 -16z m-1643 -128 c-33
-129 -64 -210 -122 -321 -63 -119 -114 -195 -130 -195 -7 0 -10 -5 -6 -12 4
-7 3 -8 -5 -4 -13 8 -60 -24 -133 -93 -58 -53 -62 -50 -9 10 22 24 38 45 37
47 -8 7 -80 -50 -115 -90 -43 -49 -101 -133 -101 -145 0 -10 -40 -36 -47 -30
-2 3 0 14 6 25 16 30 13 40 -4 18 -8 -11 -15 -14 -15 -8 0 22 -20 12 -26 -13
-3 -14 -10 -25 -15 -25 -5 0 -6 6 -3 14 6 17 -68 90 -110 107 -26 11 -35 9
-82 -15 -35 -19 -54 -35 -54 -47 0 -10 -4 -21 -10 -24 -18 -11 -11 -71 10 -90
29 -27 18 -29 -28 -6 -88 45 -135 46 -283 7 -29 -8 -79 -43 -71 -50 4 -4 2 -6
-3 -5 -17 5 -56 -21 -49 -33 4 -6 3 -8 -3 -5 -15 9 -41 -23 -77 -95 -33 -63
-66 -93 -52 -47 18 63 19 89 2 89 -10 0 -16 -8 -16 -24 0 -31 -13 -35 -96 -32
l-68 2 39 -19 c22 -10 29 -15 15 -12 -68 18 -137 11 -200 -22 -30 -15 -60 -17
-60 -3 0 6 6 10 14 10 7 0 40 12 72 27 33 15 88 30 124 33 l65 7 -56 2 c-54 1
-162 -28 -183 -49 -17 -17 -29 -11 -15 7 13 17 12 17 -13 0 -28 -17 -84 -14
-72 4 3 5 -2 6 -11 3 -14 -6 -14 -8 2 -20 17 -13 17 -14 -2 -7 -11 3 -32 15
-47 25 -65 45 -165 61 -216 34 -15 -8 -42 -30 -61 -49 -29 -30 -37 -34 -58
-26 -16 6 -22 5 -18 -1 4 -6 -9 -10 -33 -10 -47 0 -97 -16 -137 -44 l-29 -20
19 26 c11 15 23 28 26 28 11 0 43 29 33 30 -6 0 -31 -17 -55 -39 -24 -21 -54
-41 -66 -45 -11 -4 -24 -13 -27 -21 -6 -17 -36 -20 -36 -4 0 5 5 7 10 4 6 -4
10 -3 9 2 -4 21 2 34 13 27 6 -4 8 -3 5 3 -4 6 0 13 8 17 8 3 15 11 15 18 0 7
-16 -5 -36 -27 -61 -70 -69 -76 -72 -66 -2 6 11 42 29 81 51 110 170 209 253
210 19 0 42 13 69 36 22 20 65 48 96 63 49 23 68 26 161 26 94 0 112 -3 167
-29 33 -15 73 -41 88 -56 l27 -28 120 3 120 3 35 54 c19 29 44 63 56 76 54 58
211 132 282 132 31 0 37 5 59 48 32 64 102 127 184 165 61 29 75 32 167 32 84
0 107 -4 145 -23 27 -13 46 -18 48 -12 9 25 82 107 119 133 33 23 42 36 47 69
4 22 16 61 27 85 11 25 17 48 14 51 -4 4 -29 -5 -56 -21 -45 -25 -58 -27 -157
-27 -88 0 -119 -5 -177 -25 -56 -20 -88 -25 -160 -24 l-90 1 38 15 c20 9 37
20 37 25 0 24 57 80 106 104 57 28 138 36 219 22 37 -6 41 -5 60 25 25 39 77
75 122 83 46 9 119 -13 160 -49 l33 -29 37 29 c61 48 108 73 180 97 37 13 69
23 70 21 2 -1 -9 -46 -23 -99z m-1244 40 c0 -2 -8 -10 -17 -17 -16 -13 -17
-12 -4 4 13 16 21 21 21 13z m2993 -85 c7 -8 32 -23 56 -34 l44 -19 -39 -14
c-46 -16 -84 -56 -84 -89 0 -37 -17 -39 -24 -3 -8 40 -40 75 -86 95 l-35 15
30 10 c41 14 75 46 93 88 l15 35 9 -35 c6 -19 15 -41 21 -49z m-3033 36 c0 -2
-10 -12 -22 -23 l-23 -19 19 23 c18 21 26 27 26 19z m1753 -21 c43 -18 76 -54
59 -65 -7 -4 -12 -12 -10 -17 9 -30 -67 -92 -109 -89 -12 1 -20 -2 -17 -7 4
-5 12 -7 20 -4 8 3 14 0 14 -6 0 -7 4 -7 14 1 10 9 15 8 19 -2 7 -19 -40 -20
-73 0 -60 35 -72 114 -25 163 15 16 37 31 49 33 11 2 22 5 24 6 1 0 17 -5 35
-13z m-2378 -196 c-3 -5 -10 -10 -16 -10 -5 0 -9 5 -9 10 0 6 7 10 16 10 8 0
12 -4 9 -10z m92 -6 c-3 -3 -12 -4 -19 -1 -8 3 -5 6 6 6 11 1 17 -2 13 -5z
m50 0 c-3 -3 -12 -4 -19 -1 -8 3 -5 6 6 6 11 1 17 -2 13 -5z m1938 -116 c-2
-23 -8 -44 -14 -46 -6 -2 -11 -8 -11 -13 0 -6 4 -7 10 -4 6 3 7 -1 4 -10 -6
-14 -8 -14 -21 2 -13 17 -14 16 -8 -7 5 -19 4 -21 -4 -9 -11 17 -8 113 4 142
7 16 9 16 25 2 12 -11 16 -28 15 -57z m1708 -145 c53 -25 150 -116 159 -151 3
-12 2 -20 -3 -16 -5 3 -9 -2 -9 -10 0 -9 -5 -16 -11 -16 -5 0 -7 -5 -3 -12 13
-21 5 -142 -11 -178 -9 -19 -33 -48 -53 -63 -33 -26 -43 -28 -98 -25 -54 3
-66 8 -114 48 -30 25 -60 50 -68 57 -7 7 -26 20 -42 30 -17 10 -29 22 -27 28
2 5 30 19 62 29 66 22 57 27 108 -54 18 -28 30 -36 59 -38 72 -6 104 88 54
161 -13 19 -22 38 -19 40 2 3 -4 4 -14 4 -10 -1 -17 4 -15 11 1 6 -1 11 -5 11
-19 -3 -36 2 -30 8 9 8 -42 30 -94 42 -83 19 -207 -29 -289 -112 l-42 -42 32
63 c42 86 102 149 174 183 54 26 68 28 155 26 73 -2 107 -8 144 -24z m-2148
-61 c-37 -31 -88 -63 -75 -47 8 10 29 26 45 37 31 19 46 24 30 10z m-3187 -18
c51 -4 92 -10 92 -14 0 -4 -10 -5 -22 -3 -13 2 -79 7 -148 12 -69 4 -100 9
-69 10 31 0 97 -2 147 -5z m5292 -169 c18 -22 4 -64 -25 -71 -13 -3 -29 -3
-34 1 -19 11 -12 53 11 69 28 20 32 20 48 1z m-2616 -26 c35 -28 33 -44 -3
-23 -56 33 -112 -13 -90 -76 l9 -25 -20 25 c-27 34 -25 57 9 91 35 34 59 36
95 8z m1009 -61 c21 -10 47 -33 57 -51 22 -36 26 -52 8 -41 -7 4 -8 3 -4 -5
10 -15 -36 -53 -48 -40 -22 20 -39 10 -33 -20 6 -28 4 -30 -26 -29 -20 1 -38
9 -49 23 -9 12 -41 32 -70 45 -53 23 -78 23 -188 3 l-35 -6 31 29 c79 72 220
130 289 117 17 -3 47 -14 68 -25z m-3426 -4 c-3 -3 -12 -4 -19 -1 -8 3 -5 6 6
6 11 1 17 -2 13 -5z m2196 -98 c21 -10 36 -20 34 -22 -2 -2 -30 1 -62 7 -72
13 -160 -1 -214 -35 -38 -25 -102 -90 -121 -125 -10 -20 -40 -30 -40 -13 0 38
134 176 198 204 31 14 165 3 205 -16z m-2690 -13 c-7 -2 -19 -2 -25 0 -7 3 -2
5 12 5 14 0 19 -2 13 -5z m2657 -64 c18 -6 11 -8 -27 -4 -29 2 -53 0 -53 -5 0
-4 -13 -11 -30 -15 -16 -4 -32 -11 -35 -16 -4 -5 -11 -9 -17 -9 -7 0 -6 6 2
15 7 8 9 15 4 15 -4 0 1 7 12 15 21 16 104 18 144 4z m-204 -58 c0 -11 -3 -19
-6 -18 -14 5 -52 -33 -47 -47 4 -10 1 -13 -9 -9 -7 3 -14 7 -14 9 0 4 71 84
74 84 1 0 2 -9 2 -19z m2781 -53 c11 -13 24 -34 28 -48 7 -24 7 -24 -9 -5 -9
12 -15 15 -16 7 0 -7 -4 -11 -9 -8 -5 4 -11 1 -13 -4 -2 -6 -10 -12 -18 -14
-8 -1 -25 -6 -38 -10 -23 -8 -23 -8 -5 -29 14 -18 13 -17 -10 2 -33 30 -35 68
-6 105 26 33 68 35 96 4z m-3420 -54 c-3 -3 -12 -4 -19 -1 -8 3 -5 6 6 6 11 1
17 -2 13 -5z m-3572 -44 c3 -5 2 -10 -4 -10 -5 0 -13 5 -16 10 -3 6 -2 10 4
10 5 0 13 -4 16 -10z m-160 -30 c3 -5 1 -10 -4 -10 -6 0 -11 5 -11 10 0 6 2
10 4 10 3 0 8 -4 11 -10z m399 1 c4 -5 -3 -7 -14 -4 -23 6 -26 13 -6 13 8 0
17 -4 20 -9z m-309 -30 c47 -31 81 -61 69 -61 -6 0 -23 9 -37 20 -14 11 -45
29 -69 39 -36 16 -39 20 -18 20 14 1 39 -8 55 -18z m924 -55 c-2 -2 -21 -6
-42 -10 -27 -5 -37 -4 -32 3 3 6 22 11 42 11 20 0 34 -2 32 -4z m478 -27 c17
-11 34 -26 37 -35 4 -10 -6 -6 -25 11 -18 14 -45 29 -61 32 -15 3 -31 10 -34
15 -9 14 47 -2 83 -23z m2213 -39 c315 -48 593 -196 861 -457 l106 -103 59 0
c60 0 185 -30 210 -50 10 -9 20 -7 44 10 95 68 275 86 417 42 134 -41 251
-130 330 -248 l34 -51 99 5 c112 5 210 -13 291 -54 47 -23 109 -78 109 -95 0
-5 7 -26 16 -47 10 -20 18 -46 20 -57 1 -11 1 -15 -2 -9 -4 9 -13 8 -35 -3
-37 -18 -102 -11 -128 15 -10 9 -25 31 -34 47 l-15 30 -7 -28 c-10 -39 11 -82
51 -103 19 -10 34 -25 34 -34 0 -13 1 -13 10 0 5 8 10 10 10 4 0 -6 -8 -20
-18 -32 -17 -20 -20 -20 -41 -5 -18 12 -25 13 -31 3 -4 -7 -13 -9 -19 -5 -7 4
-19 1 -28 -7 -9 -7 -14 -8 -10 -2 4 6 -3 20 -16 30 -19 16 -20 17 -8 1 21 -27
9 -29 -22 -4 -18 14 -30 35 -33 57 -7 40 -14 53 -14 24 0 -15 -4 -13 -20 11
-11 17 -20 37 -20 45 0 8 -14 28 -31 45 -29 29 -31 29 -44 11 -8 -10 -25 -19
-39 -20 -15 0 -24 -6 -22 -11 2 -6 -13 -11 -35 -12 -32 -2 -37 1 -32 15 6 15
5 15 -10 3 -13 -10 -17 -10 -17 -1 0 10 -3 10 -15 0 -8 -7 -14 -23 -13 -36 3
-27 16 -32 24 -9 8 19 48 19 64 0 7 -8 17 -12 24 -8 6 3 6 0 -1 -8 -7 -7 -13
-28 -13 -46 0 -18 -4 -33 -9 -33 -5 0 -8 -8 -7 -17 1 -14 -8 -19 -39 -21 -50
-4 -102 28 -127 78 -51 100 9 207 145 258 39 15 43 20 36 39 -4 11 -14 24 -21
28 -10 6 -11 5 0 -6 17 -19 15 -39 -5 -39 -9 0 -13 3 -10 6 7 8 -46 85 -76
111 -11 10 -17 12 -13 6 5 -9 2 -11 -8 -7 -9 3 -14 10 -13 16 1 6 -6 12 -16
13 -9 2 -15 -1 -11 -6 3 -5 -1 -9 -8 -9 -8 -1 -5 -7 8 -18 11 -10 29 -31 40
-47 l19 -30 -21 15 c-12 8 -36 25 -53 38 -31 23 -45 16 -16 -8 8 -7 15 -19 15
-26 0 -8 6 -11 15 -8 9 4 15 0 15 -10 0 -20 -19 -21 -46 -1 -12 8 -24 12 -27
8 -3 -3 -13 2 -22 11 -117 117 -330 142 -426 50 -50 -48 -96 -60 -132 -34 -15
12 -32 18 -38 14 -7 -4 15 -33 54 -73 36 -36 68 -77 72 -91 6 -21 -1 -17 -40
23 -26 26 -53 47 -60 47 -6 0 -20 9 -31 21 -27 29 -72 51 -121 59 -35 6 -41 4
-32 -7 6 -7 17 -13 24 -13 18 0 48 -37 40 -49 -4 -7 -23 -2 -53 14 -54 29 -65
18 -38 -35 8 -16 10 -30 5 -30 -5 0 -9 -6 -9 -14 0 -7 -7 -19 -15 -26 -8 -7
-12 -16 -9 -21 3 -5 -1 -10 -8 -11 -7 -1 23 -4 67 -7 65 -5 80 -9 83 -23 3
-16 -8 -18 -125 -15 -70 1 -209 1 -308 0 l-179 -3 54 -55 54 -55 268 0 268 0
0 -26 0 -25 -212 6 c-220 7 -251 9 -268 20 -6 4 -7 -1 -3 -11 4 -11 2 -15 -4
-11 -6 4 8 -31 32 -76 23 -46 46 -102 50 -125 4 -23 10 -42 14 -42 4 0 9 -54
10 -120 3 -144 -21 -256 -77 -365 -46 -89 -181 -227 -267 -272 -58 -31 -194
-73 -225 -70 -8 0 -31 -2 -51 -7 -34 -7 -129 2 -229 22 -150 30 -297 138 -402
296 -62 92 -93 212 -97 376 -3 99 -8 131 -18 103 -4 -10 -47 -13 -176 -11 -95
1 -134 3 -87 5 47 1 131 8 188 14 92 11 103 14 100 31 -3 18 -15 19 -310 18
l-308 -1 0 26 0 25 319 0 318 0 39 78 c21 42 40 80 42 85 2 4 -35 7 -82 7 -80
0 -88 -2 -130 -31 -31 -22 -60 -33 -96 -37 -46 -4 -56 -1 -103 31 -50 34 -56
36 -144 38 -51 1 -93 3 -93 6 0 6 60 63 66 63 3 0 3 -4 0 -8 -3 -5 1 -9 9 -9
8 0 12 4 10 8 -3 4 2 9 10 13 8 3 15 0 15 -7 0 -7 3 -8 8 -2 10 14 42 18 42 6
0 -5 -8 -12 -17 -14 -14 -4 -13 -5 4 -6 12 0 23 -7 26 -13 2 -7 2 10 -1 39 -4
50 -3 52 29 72 42 26 65 26 107 1 18 -11 32 -15 32 -9 0 20 -77 89 -99 89 -12
0 -20 4 -17 8 5 9 4 9 -111 18 -88 7 -145 -3 -245 -42 -59 -23 -191 -120 -183
-134 3 -4 -3 -7 -13 -6 -9 0 -16 -5 -14 -11 1 -7 -2 -13 -8 -13 -5 0 -22 -12
-37 -27 -16 -16 -33 -30 -38 -33 -6 -3 -9 -10 -7 -17 1 -6 -3 -15 -9 -19 -8
-5 -10 -2 -5 7 4 8 -2 3 -13 -11 -11 -14 -20 -33 -18 -42 2 -17 -6 -20 -31
-10 -7 2 -25 -1 -40 -8 -26 -12 -26 -12 -8 9 10 11 22 18 26 16 5 -3 10 17 12
43 l3 48 -77 -4 c-43 -3 -78 -2 -78 1 0 31 15 37 89 37 l76 0 27 61 c20 44 23
59 13 55 -8 -3 -15 -1 -15 5 0 6 -5 7 -12 3 -12 -8 -120 -6 -128 2 -2 3 1 9 9
13 7 5 12 12 12 17 -1 5 19 10 44 12 27 2 45 -1 45 -7 0 -6 12 -11 28 -10 l27
1 -25 8 -25 8 26 1 c14 1 31 -5 38 -11 11 -10 13 -10 7 0 -4 7 -1 12 7 12 22
0 29 27 9 35 -9 3 -18 1 -20 -4 -5 -16 -19 -13 -19 4 0 11 11 14 41 12 33 -2
41 1 40 15 -1 10 3 16 8 15 6 -1 12 5 13 13 2 13 -13 15 -97 12 l-100 -3 7 23
c4 13 8 24 9 25 1 1 61 3 133 4 125 1 134 2 165 26 18 14 24 22 13 17 -30 -13
-285 -17 -285 -5 0 6 5 11 11 11 5 0 7 5 4 11 -4 6 -1 10 6 8 48 -6 299 3 299
11 0 6 -18 7 -44 4 -54 -8 -89 2 -66 17 10 6 -15 9 -78 7 -50 -2 -92 -1 -92 0
0 2 9 16 20 31 17 26 23 27 72 23 29 -2 50 -1 47 2 -6 7 -52 18 -76 19 -8 0
-4 12 11 31 14 17 29 30 35 29 6 -2 8 3 5 10 -8 23 214 229 325 301 206 136
474 242 686 272 166 24 328 26 465 4z m3827 -10 c46 -12 111 -39 145 -60 l63
-38 -4 -54 c-2 -29 -8 -56 -13 -59 -5 -4 -9 -19 -8 -35 1 -16 1 -32 0 -36 -5
-15 -8 -28 -9 -39 -1 -8 -6 -8 -16 1 -8 7 -15 9 -15 4 0 -5 -6 -2 -13 8 -17
22 -46 25 -85 9 -30 -13 -40 -12 -95 7 -100 34 -173 44 -241 31 -84 -15 -233
-78 -268 -112 -16 -16 -39 -30 -52 -31 -13 0 -22 -4 -20 -8 7 -10 -65 -18
-166 -17 -60 1 -113 -5 -145 -15 -27 -8 -51 -13 -53 -11 -3 2 -11 -3 -20 -11
-8 -9 -23 -13 -34 -11 -11 3 -16 1 -11 -6 4 -7 0 -8 -11 -4 -9 4 -15 3 -12 -2
3 -4 -21 -19 -53 -33 -44 -19 -58 -22 -58 -11 0 8 5 12 12 10 6 -3 22 2 36 10
13 8 16 12 7 9 -10 -3 -20 -1 -23 4 -3 4 -27 -2 -54 -15 -91 -45 -261 -74
-261 -45 0 6 17 10 38 10 27 0 33 3 22 10 -12 8 -9 10 13 10 47 0 148 39 257
100 58 32 148 73 200 91 135 45 162 61 222 129 109 124 220 196 350 225 91 21
270 14 375 -15z m-2522 -117 c115 -35 244 -62 345 -73 102 -12 436 -10 417 2
-7 5 -3 8 10 8 15 0 21 -5 17 -13 -10 -26 -134 -41 -286 -33 -79 4 -163 12
-188 17 -44 10 -157 21 -212 20 -16 0 -28 4 -28 10 0 6 -4 8 -8 5 -21 -13
-292 115 -352 165 -30 25 -16 21 90 -29 69 -32 157 -68 195 -79z m-3530 117
c8 -13 -5 -13 -25 0 -13 8 -13 10 2 10 9 0 20 -4 23 -10z m480 -34 c23 -18 5
-22 -26 -6 -10 6 -40 13 -66 15 -65 6 -66 7 -8 14 52 7 66 3 100 -23z m4549
25 c17 -7 15 -11 -23 -48 -22 -23 -41 -47 -41 -53 0 -6 -5 -8 -12 -4 -8 5 -7
0 2 -11 13 -16 13 -18 0 -13 -46 15 -40 96 9 123 29 16 38 17 65 6z m-600
-166 c16 -12 17 -15 4 -15 -8 0 -21 7 -28 15 -16 19 -1 19 24 0z m-29 -15 c3
-5 -3 -10 -15 -10 -12 0 -18 5 -15 10 3 6 10 10 15 10 5 0 12 -4 15 -10z m-50
-10 c-3 -5 -11 -10 -16 -10 -6 0 -7 5 -4 10 3 6 11 10 16 10 6 0 7 -4 4 -10z
m1486 -279 c26 -26 28 -32 18 -60 -18 -52 -72 -68 -109 -31 -27 27 -26 74 2
100 30 28 54 25 89 -9z m-279 -251 c13 -16 55 -45 93 -63 39 -19 78 -44 89
-55 18 -20 18 -21 0 -21 -11 0 -43 -5 -73 -10 -30 -6 -59 -7 -65 -4 -6 3 -8 3
-4 -2 4 -4 -6 -24 -23 -43 -37 -41 -54 -80 -64 -140 -4 -24 -10 -40 -14 -35
-7 8 -33 139 -34 175 -1 9 -5 14 -9 12 -4 -3 -8 3 -8 13 0 10 -10 29 -21 43
-11 14 -17 19 -13 11 4 -8 -8 -3 -28 12 -21 17 -55 30 -89 35 l-54 8 50 26
c28 14 61 29 75 33 67 20 88 37 110 87 l22 51 18 -51 c10 -29 29 -65 42 -82z
m521 98 c13 -15 15 -23 6 -29 -6 -4 -9 -12 -5 -18 5 -7 1 -9 -8 -5 -9 3 -16 2
-16 -2 0 -5 -10 -10 -23 -11 -37 -4 -52 -8 -54 -16 -2 -4 -8 -14 -15 -21 -17
-18 -28 -2 -28 42 0 50 49 97 93 88 18 -3 40 -16 50 -28z m-2403 -172 c-6 -6
-5 -15 3 -25 6 -8 -3 -4 -20 9 -18 13 -33 24 -33 25 0 1 14 1 30 1 20 0 27 -3
20 -10z m-23 -29 c12 -11 20 -23 18 -28 -8 -12 30 -21 59 -13 33 8 85 -24 119
-73 30 -44 49 -91 42 -103 -3 -5 -1 -11 5 -15 5 -3 10 -15 10 -26 0 -25 -44
-20 -49 7 -2 10 -6 21 -10 24 -3 3 -13 18 -21 35 -9 16 -27 34 -41 39 -32 11
-78 1 -86 -20 -7 -19 -4 -22 32 -27 34 -4 41 -30 17 -59 -29 -35 -114 -10
-132 38 -22 57 1 142 44 163 17 8 15 9 -13 4 -28 -5 -37 -2 -52 18 -23 29 -23
34 -3 53 17 17 26 15 61 -17z m-3472 -67 c-3 -5 -23 -9 -43 -9 l-37 2 35 7
c52 11 52 11 45 0z m68 -17 c-7 -2 -19 -2 -25 0 -7 3 -2 5 12 5 14 0 19 -2 13
-5z m4670 -17 c-10 -13 -19 -20 -21 -15 -2 5 -14 1 -28 -7 -13 -9 -24 -14 -24
-11 0 8 72 57 83 57 4 0 0 -11 -10 -24z m77 15 c0 -4 -11 -6 -25 -3 -14 2 -25
6 -25 8 0 2 11 4 25 4 14 0 25 -4 25 -9z m-5563 -7 c-3 -3 -12 -4 -19 -1 -8 3
-5 6 6 6 11 1 17 -2 13 -5z m6301 -154 c-23 -31 -28 -35 -28 -22 0 9 38 52 46
52 2 0 -5 -13 -18 -30z m-476 -38 c13 -22 14 -32 6 -40 -18 -18 -78 -12 -78 8
0 10 40 60 49 60 3 0 14 -13 23 -28z m-1608 -47 c10 -28 7 -41 -19 -69 -30
-32 -68 -34 -89 -4 -30 43 -14 94 34 110 20 7 66 -17 74 -37z m-4927 29 c-3
-3 -12 -4 -19 -1 -8 3 -5 6 6 6 11 1 17 -2 13 -5z m-27 -24 c0 -5 -4 -10 -10
-10 -5 0 -10 5 -10 10 0 6 5 10 10 10 6 0 10 -4 10 -10z m6735 -137 c131 -30
254 -84 383 -171 90 -60 89 -57 51 -134 -11 -21 -22 -38 -26 -38 -3 0 -4 3 0
6 9 9 -21 36 -32 29 -5 -3 -12 3 -15 12 -7 22 -64 56 -78 46 -6 -3 -8 -1 -5 4
4 6 -4 11 -20 11 -21 0 -23 -2 -9 -10 9 -5 14 -13 11 -19 -7 -10 -57 13 -89
40 -11 9 -16 10 -12 3 6 -10 2 -10 -18 -1 -14 7 -23 16 -20 20 3 5 -1 6 -9 3
-8 -3 -54 6 -102 20 -124 36 -199 42 -268 22 -50 -15 -117 -57 -117 -75 0 -3
18 -5 39 -3 54 5 81 -22 81 -82 0 -76 -62 -126 -157 -126 -75 0 -135 43 -173
125 -37 79 -2 201 74 256 109 80 320 105 511 62z m-5232 -23 c0 -14 -2 -104
-3 -200 -2 -165 -4 -176 -24 -193 l-21 -18 22 10 c26 13 29 7 38 -94 l6 -70
-57 -65 c-31 -36 -72 -89 -91 -117 -18 -29 -38 -53 -44 -53 -6 0 -7 6 -3 13 5
8 4 9 -3 2 -15 -14 -51 -119 -67 -195 -8 -36 -15 -60 -15 -53 -1 7 -8 10 -16
7 -35 -14 -6 181 48 316 11 30 38 84 59 119 21 36 36 67 33 69 -2 2 8 15 23
27 22 20 25 26 14 37 -11 11 -12 10 -6 -6 5 -14 4 -17 -5 -12 -6 4 -10 3 -9
-2 2 -6 -1 -10 -6 -10 -5 0 -13 -7 -18 -16 -5 -9 -13 -16 -19 -16 -5 0 -2 12
7 28 l16 27 -22 -25 c-13 -14 -26 -24 -31 -23 -16 5 -100 -112 -140 -192 -36
-76 -78 -212 -80 -259 0 -19 -1 -18 -10 4 -6 14 -9 41 -7 60 2 29 -1 34 -16
32 -14 -3 -17 1 -12 20 4 13 -5 -1 -19 -31 -23 -49 -25 -65 -25 -190 0 -84 6
-164 15 -210 9 -40 14 -75 12 -78 -12 -11 -57 125 -82 250 -3 15 -10 25 -15
22 -6 -4 -10 10 -11 32 0 30 -2 34 -9 17 -10 -25 5 -178 25 -258 9 -32 13 -61
10 -64 -3 -3 -34 26 -70 64 -75 80 -89 115 -106 268 -24 219 35 475 150 644
112 165 261 283 481 379 86 38 106 38 103 3z m282 9 c70 -20 102 -79 67 -124
-14 -17 -22 -21 -25 -13 -4 10 -8 10 -17 -2 -9 -12 -10 -9 -5 15 4 16 4 27 0
23 -4 -4 -18 5 -30 20 -21 24 -26 25 -44 14 -20 -11 -21 -10 -21 26 0 56 6 60
75 41z m317 -36 c15 -18 35 -63 22 -50 -4 4 -13 -1 -19 -10 -15 -20 -114 -28
-116 -9 -7 65 74 114 113 69z m-332 -75 c0 -6 -7 -8 -15 -5 -8 4 -17 2 -20 -4
-9 -13 -25 -1 -19 15 6 15 54 9 54 -6z m3810 0 c49 -15 124 -54 139 -72 11
-13 16 -12 46 5 53 31 122 34 174 7 45 -24 89 -72 60 -66 -11 2 -13 -8 -12
-42 3 -40 1 -43 -11 -27 -14 18 -99 25 -122 9 -21 -14 -34 -51 -28 -81 4 -21
3 -31 -5 -31 -7 0 -9 -4 -6 -10 4 -6 -5 -10 -21 -10 -17 0 -39 13 -65 39 -33
33 -39 45 -39 80 0 23 4 51 10 61 7 13 5 21 -7 31 -9 8 -19 13 -22 12 -13 -5
-40 9 -38 19 1 6 -4 13 -11 15 -7 3 -12 1 -11 -4 4 -23 -3 -31 -23 -25 -14 3
-19 2 -14 -6 4 -7 3 -12 -3 -12 -5 0 -12 4 -15 8 -7 12 -152 -4 -275 -32 -114
-26 -152 -26 -130 0 23 28 -1 13 -77 -48 -59 -46 -72 -54 -56 -31 35 50 140
142 190 167 123 61 262 78 372 44z m-719 -14 c19 -23 21 -57 6 -77 -11 -17
-15 -17 -45 -2 -35 18 -40 39 -16 73 18 26 36 28 55 6z m-439 -15 c152 5 225
3 278 -6 46 -9 22 -11 -145 -12 -199 -1 -225 3 -225 34 0 5 4 4 9 -4 7 -10 28
-14 83 -12z m-2408 -90 c-38 -6 -71 -5 -85 0 -18 7 -2 10 61 9 l85 0 -61 -9z
m3486 0 c0 -6 -6 -9 -12 -6 -7 2 -23 0 -36 -4 -15 -6 -30 -5 -40 2 -14 9 -14
10 6 6 12 -3 22 -1 22 4 0 5 14 9 30 9 17 0 30 -5 30 -11z m-516 -174 c47 -8
123 -30 169 -49 48 -20 86 -31 92 -26 6 5 41 14 78 21 78 14 160 3 235 -33 34
-16 40 -23 32 -33 -6 -8 -18 -11 -26 -8 -12 4 -12 8 -2 21 12 13 11 14 -9 2
-18 -12 -29 -11 -73 3 -54 18 -120 23 -120 10 0 -5 -11 -13 -25 -20 -14 -6
-23 -7 -19 -2 3 5 -3 6 -12 2 -14 -5 -12 -9 12 -27 59 -42 163 -136 183 -165
l22 -30 36 25 c48 33 84 31 127 -7 l35 -30 53 43 c59 48 167 107 243 133 168
57 419 59 632 5 83 -21 283 -115 283 -132 0 -13 -123 -178 -132 -178 -5 0 -8
-6 -8 -14 0 -7 -8 -20 -17 -27 -15 -12 -16 -12 -8 1 5 9 5 12 -1 7 -5 -5 -9
-12 -9 -15 -1 -18 -27 -52 -36 -47 -5 4 -8 3 -7 -2 2 -4 -8 -22 -21 -40 -28
-37 -32 -36 -121 27 -67 48 -155 90 -187 90 -15 0 -16 -2 -3 -10 16 -10 15
-10 -110 10 -134 21 -281 -21 -331 -95 -13 -19 -27 -35 -30 -35 -4 0 -7 -10
-6 -22 0 -13 -5 -42 -10 -65 -6 -24 -7 -43 -3 -43 4 0 11 11 14 25 9 35 41 50
77 34 102 -42 90 -181 -21 -236 -69 -35 -132 -31 -206 13 -68 40 -84 58 -120
132 -49 104 -50 228 -2 325 10 21 16 43 12 49 -4 7 -3 8 4 4 6 -3 16 3 22 15
9 15 9 19 1 15 -6 -4 -14 0 -17 8 -3 9 -9 14 -13 12 -4 -3 -31 -6 -60 -7 -45
-2 -52 -5 -48 -21 3 -10 1 -18 -4 -18 -5 0 -9 5 -9 10 0 7 -8 6 -22 -1 -21
-11 -22 -11 -9 4 7 10 11 17 7 17 -3 0 -14 -13 -24 -29 l-18 -29 -44 56 c-33
40 -53 56 -73 58 -24 2 -27 0 -16 -12 10 -12 9 -13 -6 -8 -15 6 -16 5 -4 -15
8 -12 19 -19 25 -17 7 3 10 -3 7 -15 -7 -26 -28 -24 -78 10 -24 16 -63 39 -87
50 -24 12 -65 35 -93 52 -27 17 -59 33 -70 34 -11 1 -58 8 -105 16 -72 10 -95
10 -145 -2 -35 -8 -59 -19 -58 -26 2 -7 -3 -10 -11 -7 -14 5 -43 -23 -32 -33
3 -3 6 -2 6 3 0 5 20 8 45 6 83 -7 116 -78 70 -149 -21 -31 -86 -63 -130 -63
-115 0 -205 134 -175 259 35 149 179 242 386 250 17 0 70 -6 118 -14z m-2455
-32 c119 -30 214 -91 270 -173 27 -39 31 -54 31 -111 0 -53 -4 -70 -21 -88
-70 -74 -193 -47 -213 48 -11 53 12 85 58 78 l30 -4 -27 23 c-15 13 -60 34
-100 46 -64 20 -90 23 -237 21 -152 -1 -193 -6 -332 -39 -19 -4 -28 -2 -28 6
0 7 -7 10 -15 6 -8 -3 -15 -1 -15 3 0 5 6 12 13 14 6 3 0 6 -15 6 -15 1 -57
-10 -93 -23 -46 -16 -67 -20 -70 -13 -2 7 -8 27 -14 46 -16 48 -15 49 27 57
20 3 57 12 82 20 161 47 316 85 380 93 89 11 214 4 289 -16z m-1999 -163 c0
-5 -4 -10 -10 -10 -5 0 -10 5 -10 10 0 6 5 10 10 10 6 0 10 -4 10 -10z m1054
-185 c36 -120 167 -399 221 -469 16 -21 22 -37 16 -41 -16 -9 -14 -48 2 -39 9
5 9 4 1 -5 -19 -20 53 -149 171 -306 33 -44 69 -89 81 -100 12 -11 20 -28 19
-38 -2 -9 0 -15 4 -12 13 7 42 -19 45 -40 1 -10 9 -21 16 -23 9 -3 10 0 4 9
-7 12 -5 12 9 0 13 -11 15 -17 6 -28 -10 -11 -24 -2 -78 49 -68 65 -179 197
-214 255 -10 18 -23 30 -29 27 -5 -3 -8 2 -6 12 2 11 -2 18 -9 17 -8 -2 -10 4
-6 15 6 14 4 15 -9 4 -13 -10 -17 -10 -20 0 -3 8 -7 6 -11 -6 -4 -10 -3 -15 3
-11 5 3 17 -6 27 -21 16 -25 16 -27 0 -39 -15 -11 -15 -14 -1 -31 9 -10 12
-13 8 -5 -4 9 -3 12 4 7 6 -4 9 -12 7 -19 -2 -7 33 -59 79 -117 46 -58 82
-107 79 -110 -9 -8 -242 241 -293 313 -27 37 -52 67 -56 65 -7 -3 -41 69 -81
172 -34 88 -63 244 -63 337 0 78 37 261 49 246 4 -4 15 -35 25 -68z m743 -29
c129 -28 234 -99 279 -191 84 -173 -59 -355 -215 -275 -56 28 -81 64 -81 115
0 36 5 48 31 69 35 30 83 34 111 9 24 -22 23 -2 -2 30 -56 71 -186 99 -379 83
-36 -3 -67 -9 -70 -13 -3 -5 -23 -9 -45 -11 -29 -2 -37 1 -33 12 3 8 -1 13
-11 12 -17 -1 -62 67 -62 95 0 11 18 22 55 34 138 43 308 56 422 31z m2862
-157 c134 -23 281 -113 351 -214 33 -47 54 -95 42 -95 -4 0 -33 25 -66 55 -56
53 -86 68 -86 43 0 -6 -8 -2 -17 8 -11 12 -33 20 -58 21 -22 1 -53 9 -70 17
-16 9 -37 16 -45 15 -10 0 -9 -3 5 -10 22 -11 21 -10 -90 18 -96 24 -241 -1
-265 -46 -7 -15 -4 -17 21 -13 41 6 69 -21 69 -67 0 -130 -197 -153 -261 -31
-62 115 33 246 213 294 65 18 170 20 257 5z m-3349 -339 c0 -5 -2 -10 -4 -10
-3 0 -8 5 -11 10 -3 6 -1 10 4 10 6 0 11 -4 11 -10z m1238 -5 c137 -32 276
-134 362 -264 l15 -23 145 74 c276 141 434 188 625 188 175 0 379 -60 509
-150 l46 -31 78 34 c174 78 284 102 452 101 210 -2 329 -35 609 -170 l155 -74
-64 -45 c-35 -25 -68 -45 -73 -45 -5 0 -49 16 -96 35 -80 32 -140 40 -159 21
-5 -6 14 -9 22 -3 2 1 12 -6 22 -15 11 -9 39 -25 64 -36 25 -11 53 -26 64 -34
17 -14 17 -15 -8 -31 -25 -17 -28 -16 -78 9 -94 47 -270 100 -198 59 l25 -14
-30 4 c-16 2 -66 8 -110 13 -44 6 -111 10 -150 9 -51 -1 -89 5 -139 22 -53 18
-70 21 -76 11 -5 -7 -13 -9 -21 -5 -7 5 -40 11 -73 14 -62 6 -76 20 -34 33 13
4 -1 6 -31 3 -63 -5 -86 -20 -57 -37 15 -8 16 -12 5 -19 -8 -5 -23 -6 -34 -3
-14 4 -10 -3 15 -26 23 -21 28 -29 15 -25 -50 18 -161 45 -179 44 -18 -1 -18
-2 4 -10 17 -6 9 -7 -26 -3 -28 3 -76 1 -107 -5 -33 -6 -77 -7 -107 -2 -29 5
-53 4 -56 -1 -3 -5 -14 -6 -25 -3 -12 4 -34 -3 -57 -16 l-37 -22 28 30 c15 16
50 40 77 53 45 21 48 24 32 36 -10 7 -37 13 -59 12 -23 0 -46 3 -52 6 -5 4
-47 4 -91 0 -45 -4 -77 -10 -71 -14 6 -3 -26 -17 -71 -30 -46 -13 -116 -34
-157 -48 -40 -13 -83 -25 -95 -27 -11 -1 -30 -6 -41 -9 -11 -4 -2 3 20 15 22
12 69 30 105 40 36 10 55 18 44 18 -29 1 -153 -40 -239 -79 -61 -28 -215 -90
-222 -90 -2 0 -3 4 -3 8 0 5 12 14 28 21 15 7 57 32 93 56 37 24 98 58 135 75
112 51 133 62 104 54 -14 -4 -42 -7 -62 -8 -21 -1 -38 -4 -38 -8 0 -5 -4 -8
-10 -8 -5 0 -42 -15 -82 -34 -124 -57 -259 -107 -363 -134 -89 -24 -119 -27
-275 -27 -201 0 -234 6 -361 73 -84 43 -218 137 -269 188 l-25 25 39 -16 c60
-25 157 -54 275 -82 132 -31 366 -42 492 -23 72 10 226 51 252 67 10 6 -72 93
-87 93 -6 0 10 -21 34 -46 32 -33 38 -43 20 -33 -14 7 -27 14 -30 14 -3 0 -25
14 -50 31 -44 30 -104 64 -114 64 -3 0 13 -19 34 -42 39 -42 48 -62 32 -72 -4
-2 -41 16 -82 41 -95 58 -143 79 -148 64 -2 -7 -10 -8 -20 -2 -9 5 -20 9 -25
9 -29 2 -111 16 -160 28 -32 8 -63 14 -70 13 -7 -1 -30 0 -52 1 -39 2 -39 3
-10 10 21 5 24 8 10 9 -18 2 -18 3 5 16 14 8 21 15 15 15 -5 0 -21 3 -34 7
-17 4 -22 3 -17 -5 5 -8 -1 -12 -16 -13 -36 -2 -41 -3 -68 -17 -18 -10 -15 -5
10 17 48 41 146 88 200 96 25 4 47 9 49 11 10 10 172 2 229 -11z m-1153 -85
c10 -11 16 -20 13 -20 -3 0 -13 9 -23 20 -10 11 -16 20 -13 20 3 0 13 -9 23
-20z m45 -55 c13 -14 21 -25 18 -25 -2 0 -15 11 -28 25 -13 14 -21 25 -18 25
2 0 15 -11 28 -25z m125 -136 c22 -23 33 -38 24 -33 -16 9 -75 74 -67 74 2 0
22 -19 43 -41z m-385 11 c6 -11 8 -20 6 -20 -3 0 -10 9 -16 20 -6 11 -8 20 -6
20 3 0 10 -9 16 -20z m594 -269 c67 -65 134 -129 150 -142 42 -34 94 -83 76
-72 -40 26 -221 171 -263 212 -64 61 -112 121 -96 121 7 0 67 -53 133 -119z
m1941 98 c-11 -17 -49 -28 -57 -15 -6 8 -8 7 -8 -1 0 -7 -7 -13 -15 -13 -8 0
-15 -4 -15 -10 0 -5 -3 -9 -7 -8 -5 1 -48 -11 -98 -27 -49 -16 -92 -30 -95
-30 -10 -3 -45 -17 -75 -30 -16 -8 -33 -11 -38 -8 -4 3 -16 -2 -25 -10 -19
-16 -62 -40 -62 -34 0 8 117 86 169 112 76 38 125 55 206 70 89 17 128 18 120
4z m1204 -69 c46 -11 91 -25 100 -31 13 -8 12 -9 -7 -4 -13 4 -28 1 -37 -9
-16 -16 -99 -20 -89 -5 3 5 -5 9 -18 9 -17 0 -19 -3 -9 -9 29 -19 -25 -31
-114 -25 -49 2 -91 7 -95 9 -3 2 -38 -1 -76 -7 -38 -6 -89 -10 -113 -10 -24 0
-55 -4 -70 -9 -23 -8 -24 -8 -8 5 37 29 2 37 -48 10 -26 -14 -135 -36 -135
-27 0 1 26 16 58 31 83 42 198 81 267 92 89 13 297 3 394 -20z m-1969 -20 c0
-5 -5 -10 -11 -10 -5 0 -7 5 -4 10 3 6 8 10 11 10 2 0 4 -4 4 -10z m2152 -42
c22 -8 25 -12 15 -22 -9 -10 -16 -10 -29 -3 -9 6 -15 13 -12 16 2 3 -6 11 -18
19 -24 14 -19 13 44 -10z m-1172 -32 c-30 -6 -90 -11 -133 -11 -42 0 -77 -3
-77 -7 0 -4 -7 -5 -16 -1 -15 6 -15 8 2 20 13 9 54 13 148 12 126 -1 129 -1
76 -13z m735 -15 l90 -8 -125 0 c-69 0 -146 -4 -172 -8 -33 -5 -48 -4 -48 4 0
16 82 31 135 24 17 -2 71 -8 120 -12z m-490 -11 c3 -5 1 -10 -4 -10 -6 0 -11
5 -11 10 0 6 2 10 4 10 3 0 8 -4 11 -10z m649 -9 c3 -4 -6 -6 -19 -3 -14 2
-25 6 -25 8 0 8 39 4 44 -5z m-2794 -41 c-13 -8 -12 -10 4 -10 10 0 44 -16 76
-35 61 -37 147 -78 190 -89 14 -4 -6 9 -45 29 -91 46 -120 76 -40 40 423 -190
979 -322 1440 -341 91 -4 164 -9 162 -11 -10 -9 -240 -26 -387 -28 -278 -3
-537 34 -795 116 -196 62 -275 98 -393 178 -49 34 -96 61 -105 61 -10 0 -17 7
-17 15 0 8 -5 15 -11 15 -5 0 -7 -5 -3 -11 4 -7 1 -10 -7 -7 -8 3 -13 10 -12
16 2 6 -3 9 -11 6 -7 -3 -28 7 -45 22 -25 20 -29 29 -19 35 7 5 18 9 23 9 6 0
3 -5 -5 -10z"/>
<path d="M2688 7733 c7 -3 16 -2 19 1 4 3 -2 6 -13 5 -11 0 -14 -3 -6 -6z"/>
<path d="M2695 7710 c-3 -5 -2 -10 4 -10 5 0 13 5 16 10 3 6 2 10 -4 10 -5 0
-13 -4 -16 -10z"/>
<path d="M2850 7706 c0 -2 9 -6 20 -9 11 -3 18 -1 14 4 -5 9 -34 13 -34 5z"/>
<path d="M2805 7590 c-3 -5 1 -10 10 -10 9 0 13 5 10 10 -3 6 -8 10 -10 10 -2
0 -7 -4 -10 -10z"/>
<path d="M2859 7500 c-18 -12 -6 -23 19 -18 16 2 17 5 7 15 -7 6 -18 8 -26 3z"/>
<path d="M3080 7390 c8 -5 20 -10 25 -10 6 0 3 5 -5 10 -8 5 -19 10 -25 10 -5
0 -3 -5 5 -10z"/>
<path d="M2345 6800 c-165 -3 -301 -7 -302 -8 -8 -6 -2 -22 6 -18 12 8 83 -28
74 -38 -4 -4 1 -4 11 0 12 5 17 4 13 -3 -4 -6 19 -30 51 -55 l57 -44 180 7
c99 4 325 8 503 8 308 1 323 2 342 21 26 26 29 124 4 134 -18 7 -486 5 -939
-4z m-250 -20 c3 -5 1 -10 -4 -10 -6 0 -11 5 -11 10 0 6 2 10 4 10 3 0 8 -4
11 -10z m134 -17 c27 -16 33 -16 41 -3 7 12 43 14 227 10 307 -6 755 -6 773 0
11 4 15 -3 15 -25 l0 -30 -522 -3 c-515 -2 -523 -2 -523 18 0 13 -5 18 -15 14
-11 -5 -13 -10 -5 -19 8 -10 2 -12 -27 -11 -23 1 -38 6 -38 14 0 7 -7 17 -15
23 -13 9 -13 10 2 6 9 -3 22 1 28 9 16 18 22 18 59 -3z"/>
<path d="M3304 6600 c-9 -8 -145 -12 -487 -13 -366 -2 -479 -5 -489 -14 -9
-10 -9 -13 2 -14 8 -1 19 -1 24 0 5 1 4 -5 -3 -13 -10 -12 -9 -16 6 -24 10 -6
22 -10 26 -10 5 0 12 -4 15 -8 4 -4 1 -4 -5 0 -19 11 -16 -24 5 -58 l18 -29
234 2 c129 1 333 4 453 5 214 3 219 2 227 -18 10 -28 6 -33 -37 -41 -31 -6
-35 -8 -20 -17 13 -6 22 -6 32 2 11 9 19 7 37 -10 22 -22 22 -22 1 -11 -40 20
-37 11 5 -20 23 -17 42 -34 42 -37 1 -4 12 -20 26 -37 14 -16 21 -21 16 -10
-10 20 -12 27 -12 46 0 5 -5 7 -11 3 -8 -4 -9 1 -4 16 5 17 4 21 -5 15 -8 -5
-11 -4 -7 2 8 13 -20 102 -39 123 -7 8 -14 43 -16 77 -2 33 -6 59 -10 57 -4
-2 -8 7 -10 21 -2 20 -6 23 -14 15z m-10 -76 c15 -39 20 -39 -413 -39 -231 0
-422 3 -426 7 -20 20 87 32 330 38 510 12 502 12 509 -6z"/>
<path d="M2444 6361 c-8 -8 -4 -51 5 -51 5 0 7 -22 4 -48 -3 -36 0 -52 11 -61
12 -10 16 -10 16 -2 0 7 3 10 8 8 14 -10 60 19 93 58 19 22 27 34 18 28 -12
-10 -16 -10 -16 0 0 7 10 14 21 14 12 1 40 7 64 15 37 11 52 10 110 -5 64 -17
67 -17 80 0 7 10 16 18 20 18 4 1 20 8 37 17 27 15 14 16 -219 14 -136 0 -249
-3 -252 -5z m401 -41 c3 -5 1 -10 -4 -10 -6 0 -11 5 -11 10 0 6 2 10 4 10 3 0
8 -4 11 -10z"/>
<path d="M1599 6263 c-68 -35 -189 -138 -189 -162 0 -4 42 -11 93 -15 133 -10
133 -10 148 -22 8 -6 28 -16 44 -23 17 -6 56 -36 87 -65 l55 -53 57 8 c68 9
146 -8 205 -46 22 -13 41 -21 44 -17 2 4 3 2 1 -4 -1 -6 8 -23 20 -39 19 -24
27 -26 55 -20 32 7 32 8 26 48 -4 23 -19 70 -35 103 -48 106 -176 182 -286
171 -30 -3 -61 -10 -67 -15 -7 -5 -23 -13 -37 -17 l-25 -7 24 25 c47 52 179
58 244 12 21 -15 47 -5 47 17 0 6 -7 5 -15 -2 -12 -10 -16 -9 -21 3 -9 25 -65
45 -144 52 -67 6 -81 4 -133 -19 -32 -14 -72 -35 -88 -47 l-31 -22 16 30 c10
21 39 43 93 71 75 40 77 41 42 42 -51 0 -116 -22 -173 -58 -27 -17 -52 -29
-56 -27 -5 3 -10 -2 -14 -10 -3 -8 -13 -15 -22 -15 -25 0 17 43 84 86 29 19
50 39 47 44 -4 7 -13 7 -25 0 -10 -5 -22 -10 -27 -10 -4 1 8 9 27 20 65 35 4
20 -71 -17z m-51 -147 c-7 -8 -17 -12 -22 -9 -4 3 -2 9 5 14 22 13 31 11 17
-5z m242 -40 c0 -2 -7 -7 -16 -10 -8 -3 -12 -2 -9 4 6 10 25 14 25 6z m220
-11 c37 -3 40 -4 40 -15 0 -15 -39 -11 -95 10 -49 19 -49 19 -10 13 21 -3 51
-7 65 -8z m-110 -14 c0 -5 -9 -11 -21 -14 -16 -4 -18 -3 -8 9 13 16 29 19 29
5z m153 -74 c18 -8 39 -22 47 -32 15 -18 14 -18 -13 -1 -15 10 -44 24 -65 32
-20 7 -29 13 -19 14 10 0 32 -6 50 -13z"/>
<path d="M2104 6119 c-6 -10 16 -30 36 -35 19 -4 39 -17 35 -23 -2 -4 2 -8 10
-8 22 0 18 15 -5 22 -11 4 -28 17 -36 31 -18 26 -29 30 -40 13z"/>
<path d="M2271 5885 c1 -19 18 -51 18 -35 0 8 -4 22 -9 30 -5 8 -9 11 -9 5z"/>
<path d="M2301 5864 c0 -11 3 -14 6 -6 3 7 2 16 -1 19 -3 4 -6 -2 -5 -13z"/>
<path d="M2285 5830 c-18 -8 -17 -9 8 -9 16 -1 26 3 22 9 -3 6 -7 10 -8 9 -1
0 -11 -4 -22 -9z"/>
<path d="M1398 5273 c7 -3 16 -2 19 1 4 3 -2 6 -13 5 -11 0 -14 -3 -6 -6z"/>
<path d="M1240 5251 c0 -6 12 -13 28 -16 15 -4 44 -12 64 -20 28 -10 35 -10
32 0 -3 7 -24 18 -47 24 -23 7 -50 15 -59 17 -10 3 -18 1 -18 -5z"/>
<path d="M1702 4353 c-35 -7 -15 -23 28 -23 46 0 72 9 64 21 -5 9 -50 10 -92
2z"/>
<path d="M1443 4333 c26 -2 67 -2 90 0 23 2 2 3 -48 3 -49 0 -68 -1 -42 -3z"/>
<path d="M2560 4270 c0 -6 53 -9 145 -8 80 2 145 6 145 11 0 4 -65 7 -145 7
-91 0 -145 -4 -145 -10z"/>
<path d="M2903 4273 c9 -2 25 -2 35 0 9 3 1 5 -18 5 -19 0 -27 -2 -17 -5z"/>
<path d="M2983 4263 c9 -2 25 -2 35 0 9 3 1 5 -18 5 -19 0 -27 -2 -17 -5z"/>
<path d="M2340 4076 c0 -9 40 -13 46 -5 3 5 -6 9 -20 9 -14 0 -26 -2 -26 -4z"/>
<path d="M1425 3930 c4 -6 11 -8 16 -5 14 9 11 15 -7 15 -8 0 -12 -5 -9 -10z"/>
<path d="M2279 3693 c-13 -16 -12 -17 4 -4 9 7 17 15 17 17 0 8 -8 3 -21 -13z"/>
<path d="M2226 3648 c3 -5 10 -6 15 -3 13 9 11 12 -6 12 -8 0 -12 -4 -9 -9z"/>
<path d="M2203 3623 c-3 -10 -8 -22 -10 -28 -3 -5 3 -1 11 9 16 20 21 36 11
36 -3 0 -8 -8 -12 -17z"/>
<path d="M2142 3519 c-32 -56 -23 -59 11 -4 14 25 23 45 19 45 -4 0 -17 -19
-30 -41z"/>
<path d="M7240 8326 c0 -2 7 -9 15 -16 9 -7 15 -8 15 -2 0 5 -7 12 -15 16 -8
3 -15 4 -15 2z"/>
<path d="M7680 7560 c-13 -8 -12 -10 3 -10 9 0 17 5 17 10 0 12 -1 12 -20 0z"/>
<path d="M7705 7457 c10 -8 25 -12 33 -10 17 7 10 13 -24 19 -27 5 -28 4 -9
-9z"/>
<path d="M5466 5429 c-11 -10 -15 -19 -9 -19 5 0 18 9 28 20 23 26 6 25 -19
-1z"/>
<path d="M4350 5245 c-14 -8 -20 -14 -14 -15 5 0 19 7 30 15 24 18 16 19 -16
0z"/>
<path d="M3940 4760 c-13 -9 -13 -10 0 -9 8 0 24 4 35 9 l20 9 -20 0 c-11 0
-27 -4 -35 -9z"/>
<path d="M3848 4693 c6 -2 18 -2 25 0 6 3 1 5 -13 5 -14 0 -19 -2 -12 -5z"/>
<path d="M4348 4343 c7 -3 16 -2 19 1 4 3 -2 6 -13 5 -11 0 -14 -3 -6 -6z"/>
<path d="M5605 4340 l-170 -6 167 -2 c103 -1 169 2 173 8 3 6 5 9 3 8 -2 -1
-79 -5 -173 -8z"/>
<path d="M3728 4323 c6 -2 18 -2 25 0 6 3 1 5 -13 5 -14 0 -19 -2 -12 -5z"/>
<path d="M3638 4273 c7 -3 16 -2 19 1 4 3 -2 6 -13 5 -11 0 -14 -3 -6 -6z"/>
<path d="M3688 4273 c6 -2 18 -2 25 0 6 3 1 5 -13 5 -14 0 -19 -2 -12 -5z"/>
<path d="M4559 4275 c-3 -2 -78 -5 -167 -6 -132 -1 -159 -4 -145 -14 25 -17
228 -25 658 -26 688 -1 835 1 835 11 0 6 -28 10 -62 11 -46 1 -56 3 -38 9 27
8 -170 4 -310 -6 -144 -11 -722 -7 -750 5 -20 9 -7 10 60 7 69 -4 76 -3 35 4
-58 10 -110 12 -116 5z m-79 -25 c0 -5 -5 -10 -11 -10 -5 0 -7 5 -4 10 3 6 8
10 11 10 2 0 4 -4 4 -10z"/>
<path d="M6790 4276 c0 -2 7 -7 16 -10 8 -3 12 -2 9 4 -6 10 -25 14 -25 6z"/>
<path d="M4943 4263 c37 -2 96 -2 130 0 34 2 4 3 -68 3 -71 0 -99 -1 -62 -3z"/>
<path d="M4330 4190 c0 -5 10 -12 23 -15 12 -3 325 -4 696 -3 492 2 675 6 678
14 3 9 -179 12 -697 13 -445 0 -700 -3 -700 -9z"/>
<path d="M5718 4135 c-3 -3 -305 -5 -672 -5 l-667 0 12 -23 c7 -12 17 -25 24
-29 7 -4 10 -18 8 -31 -5 -23 -2 -24 73 -30 178 -16 344 -3 344 26 0 5 7 7 15
4 8 -4 17 -2 20 3 4 6 16 10 29 10 12 0 26 3 30 7 19 19 190 27 306 14 126
-15 126 -14 150 -36 11 -10 20 -14 20 -9 0 5 4 4 8 -3 5 -8 70 -12 210 -15
111 -1 202 -1 202 1 0 2 -18 23 -40 47 -22 24 -40 50 -40 59 0 14 -21 21 -32
10z m-1111 -62 c-11 -11 -127 -14 -127 -3 0 6 30 10 67 10 36 0 63 -3 60 -7z"/>
<path d="M3338 4003 c7 -3 16 -2 19 1 4 3 -2 6 -13 5 -11 0 -14 -3 -6 -6z"/>
<path d="M4428 3948 c-3 -16 -2 -28 1 -29 25 -3 44 -8 49 -14 4 -3 -7 -4 -23
-1 -29 5 -45 -6 -45 -31 0 -10 25 -13 94 -13 l94 0 31 36 c17 19 28 40 25 46
-4 6 -3 8 4 5 14 -9 39 1 39 16 0 9 -36 12 -133 12 l-132 0 -4 -27z m70 -15
c-10 -2 -26 -2 -35 0 -10 3 -2 5 17 5 19 0 27 -2 18 -5z m126 -24 c-6 -10 -83
-9 -89 1 -2 4 18 7 45 7 26 -1 47 -5 44 -8z"/>
<path d="M7580 3944 c0 -13 18 -39 24 -34 2 3 -2 14 -10 24 -8 11 -14 16 -14
10z"/>
<path d="M6980 3873 c0 -15 -2 -16 -10 -3 -5 8 -10 10 -10 4 0 -7 8 -22 19
-35 16 -20 22 -22 45 -11 17 8 24 16 19 28 -4 10 -8 12 -12 5 -5 -7 -15 -4
-29 9 -20 19 -22 19 -22 3z"/>
<path d="M8433 4123 c9 -2 25 -2 35 0 9 3 1 5 -18 5 -19 0 -27 -2 -17 -5z"/>
<path d="M2901 3224 c6 -7 16 -11 21 -8 11 7 3 17 -18 20 -12 2 -13 -1 -3 -12z"/>
<path d="M6750 2973 c0 -1 8 -7 18 -12 13 -7 19 -6 19 2 0 7 -9 13 -19 13 -10
0 -18 -1 -18 -3z"/>
<path d="M8116 2801 c-4 -5 4 -7 16 -4 19 4 20 3 8 -7 -10 -8 -11 -10 -2 -8 8
2 13 8 13 13 0 14 -28 18 -35 6z"/>
<path d="M8160 2772 c0 -5 7 -15 15 -22 8 -7 15 -8 15 -2 0 5 -7 15 -15 22 -8
7 -15 8 -15 2z"/>
<path d="M3256 2217 c3 -10 9 -15 12 -12 3 3 0 11 -7 18 -10 9 -11 8 -5 -6z"/>
<path d="M3300 2131 c0 -5 5 -13 10 -16 6 -3 10 -2 10 4 0 5 -4 13 -10 16 -5
3 -10 2 -10 -4z"/>
<path d="M3450 2720 c-9 -6 -10 -10 -3 -10 6 0 15 5 18 10 8 12 4 12 -15 0z"/>
<path d="M6893 2003 c9 -2 25 -2 35 0 9 3 1 5 -18 5 -19 0 -27 -2 -17 -5z"/>
<path d="M6998 1983 c6 -2 18 -2 25 0 6 3 1 5 -13 5 -14 0 -19 -2 -12 -5z"/>
<path d="M5500 1870 c-9 -6 -10 -10 -3 -10 6 0 15 5 18 10 8 12 4 12 -15 0z"/>
</g>
</svg>
